<svg xmlns="http://www.w3.org/2000/svg" viewBox="0 0 600 176" width="600" height="176" fill="none">
<rect x="26" y="26" width="548" height="124" fill="#010409" stroke="#cdd2d8" stroke-width="1.1"/><rect x="35" y="35" width="530" height="106" fill="none" stroke="#cdd2d8" stroke-width="0.7" opacity="0.45"/>
<polygon points="300.0,21 305.0,26 300.0,31 295.0,26" fill="#010409" stroke="#cdd2d8" stroke-width="1"/><polygon points="300.0,145 305.0,150 300.0,155 295.0,150" fill="#010409" stroke="#cdd2d8" stroke-width="1"/><polygon points="26,84.0 30,88.0 26,92.0 22,88.0" fill="#010409" stroke="#cdd2d8" stroke-width="0.9"/><polygon points="574,84.0 578,88.0 574,92.0 570,88.0" fill="#010409" stroke="#cdd2d8" stroke-width="0.9"/>
<g transform="translate(26,26) scale(1,1)"><circle cx="0" cy="0" r="13" fill="#010409" stroke="#cdd2d8" stroke-width="1.1"/><circle cx="0" cy="0" r="8" fill="none" stroke="#cdd2d8" stroke-width="0.7" opacity="0.75"/><circle cx="0" cy="0" r="1.6" fill="#cdd2d8"/><g stroke="#cdd2d8" stroke-width="0.8"><line x1="-18" y1="0" x2="-9" y2="0"/><line x1="9" y1="0" x2="18" y2="0"/><line x1="0" y1="-18" x2="0" y2="-9"/><line x1="0" y1="9" x2="0" y2="18"/></g><line x1="13" y1="13" x2="30" y2="30" stroke="#cdd2d8" stroke-width="0.7" opacity="0.6"/><polygon points="35,31.8 38.2,35 35,38.2 31.8,35" fill="none" stroke="#cdd2d8" stroke-width="0.8"/><polygon points="46,-2.6 48.6,0 46,2.6 43.4,0" fill="#cdd2d8" opacity="0.85"/><polygon points="0,43.4 2.6,46 0,48.6 -2.6,46" fill="#cdd2d8" opacity="0.85"/></g><g transform="translate(574,26) scale(-1,1)"><circle cx="0" cy="0" r="13" fill="#010409" stroke="#cdd2d8" stroke-width="1.1"/><circle cx="0" cy="0" r="8" fill="none" stroke="#cdd2d8" stroke-width="0.7" opacity="0.75"/><circle cx="0" cy="0" r="1.6" fill="#cdd2d8"/><g stroke="#cdd2d8" stroke-width="0.8"><line x1="-18" y1="0" x2="-9" y2="0"/><line x1="9" y1="0" x2="18" y2="0"/><line x1="0" y1="-18" x2="0" y2="-9"/><line x1="0" y1="9" x2="0" y2="18"/></g><line x1="13" y1="13" x2="30" y2="30" stroke="#cdd2d8" stroke-width="0.7" opacity="0.6"/><polygon points="35,31.8 38.2,35 35,38.2 31.8,35" fill="none" stroke="#cdd2d8" stroke-width="0.8"/><polygon points="46,-2.6 48.6,0 46,2.6 43.4,0" fill="#cdd2d8" opacity="0.85"/><polygon points="0,43.4 2.6,46 0,48.6 -2.6,46" fill="#cdd2d8" opacity="0.85"/></g><g transform="translate(26,150) scale(1,-1)"><circle cx="0" cy="0" r="13" fill="#010409" stroke="#cdd2d8" stroke-width="1.1"/><circle cx="0" cy="0" r="8" fill="none" stroke="#cdd2d8" stroke-width="0.7" opacity="0.75"/><circle cx="0" cy="0" r="1.6" fill="#cdd2d8"/><g stroke="#cdd2d8" stroke-width="0.8"><line x1="-18" y1="0" x2="-9" y2="0"/><line x1="9" y1="0" x2="18" y2="0"/><line x1="0" y1="-18" x2="0" y2="-9"/><line x1="0" y1="9" x2="0" y2="18"/></g><line x1="13" y1="13" x2="30" y2="30" stroke="#cdd2d8" stroke-width="0.7" opacity="0.6"/><polygon points="35,31.8 38.2,35 35,38.2 31.8,35" fill="none" stroke="#cdd2d8" stroke-width="0.8"/><polygon points="46,-2.6 48.6,0 46,2.6 43.4,0" fill="#cdd2d8" opacity="0.85"/><polygon points="0,43.4 2.6,46 0,48.6 -2.6,46" fill="#cdd2d8" opacity="0.85"/></g><g transform="translate(574,150) scale(-1,-1)"><circle cx="0" cy="0" r="13" fill="#010409" stroke="#cdd2d8" stroke-width="1.1"/><circle cx="0" cy="0" r="8" fill="none" stroke="#cdd2d8" stroke-width="0.7" opacity="0.75"/><circle cx="0" cy="0" r="1.6" fill="#cdd2d8"/><g stroke="#cdd2d8" stroke-width="0.8"><line x1="-18" y1="0" x2="-9" y2="0"/><line x1="9" y1="0" x2="18" y2="0"/><line x1="0" y1="-18" x2="0" y2="-9"/><line x1="0" y1="9" x2="0" y2="18"/></g><line x1="13" y1="13" x2="30" y2="30" stroke="#cdd2d8" stroke-width="0.7" opacity="0.6"/><polygon points="35,31.8 38.2,35 35,38.2 31.8,35" fill="none" stroke="#cdd2d8" stroke-width="0.8"/><polygon points="46,-2.6 48.6,0 46,2.6 43.4,0" fill="#cdd2d8" opacity="0.85"/><polygon points="0,43.4 2.6,46 0,48.6 -2.6,46" fill="#cdd2d8" opacity="0.85"/></g>
<text x="300.0" y="82" text-anchor="middle" font-family="Georgia,'Times New Roman',serif" font-size="40" letter-spacing="10" fill="#f2f4f7">BLOG</text>
<g stroke="#cdd2d8" stroke-width="0.8" opacity="0.8"><line x1="200" y1="104" x2="288" y2="104"/><line x1="312" y1="104" x2="400" y2="104"/></g><polygon points="300,100 304,104 300,108 296,104" fill="none" stroke="#cdd2d8" stroke-width="0.9"/>
<text x="300.0" y="130" text-anchor="middle" font-family="Georgia,'Times New Roman',serif" font-size="15" letter-spacing="6" fill="#aab1ba">writeups · research</text>
</svg>
